<svg width="32" height="32" viewBox="0 0 32 32" fill="none" xmlns="http://www.w3.org/2000/svg">
<g clip-path="url(#clip0_1_242)">
<path d="M31.3522 27.4496L30.6906 24.9806C30.6045 24.6591 30.274 24.4681 29.9527 24.5545C29.6312 24.6407 29.4405 24.971 29.5266 25.2924L29.8163 26.3734L25.5885 23.9617V13.9385C25.5885 13.7229 25.4732 13.5236 25.2863 13.4162L16.5507 8.39379V3.62109L17.3297 4.40009C17.565 4.63538 17.9465 4.63538 18.1818 4.40009C18.4171 4.16481 18.4171 3.78329 18.1818 3.54794L16.3742 1.74038C16.1387 1.50389 15.753 1.50865 15.5221 1.74038L13.7145 3.54794C13.4792 3.78323 13.4792 4.16475 13.7145 4.40009C13.9498 4.63532 14.3313 4.63532 14.5667 4.40009L15.3457 3.62109V8.39487L6.66869 13.417C6.48258 13.5247 6.36798 13.7235 6.36798 13.9385V23.8643L2.08073 26.3006L2.37084 25.2177C2.45694 24.8962 2.26618 24.5659 1.94474 24.4798C1.62323 24.3935 1.29293 24.5843 1.20683 24.9058L0.545259 27.3755C0.461508 27.6882 0.648772 28.0363 0.989378 28.1182L3.4405 28.775C3.76454 28.8618 4.09303 28.6678 4.17847 28.349C4.26463 28.0276 4.07387 27.6972 3.75243 27.6111L2.70687 27.3309L6.96194 24.913L15.6804 30.0469C15.867 30.1568 16.0988 30.1582 16.2871 30.0496L18.4973 28.7755C18.7856 28.6093 18.8845 28.2409 18.7184 27.9526C18.5522 27.6644 18.1837 27.5654 17.8954 27.7316L15.9894 28.8304L8.1706 24.2262L15.9102 19.8282L23.799 24.3282L22.5921 25.024C22.3038 25.1902 22.2049 25.5586 22.371 25.8469C22.5373 26.1352 22.9058 26.2342 23.194 26.0679L25.0118 25.02L29.1922 27.4047L28.1452 27.6852C27.8238 27.7713 27.633 28.1017 27.7192 28.4231C27.8049 28.743 28.1342 28.9358 28.4571 28.8492L30.8719 28.2022C31.2167 28.1413 31.4447 27.7948 31.3522 27.4496ZM24.3834 23.2742L16.5506 18.8061V9.78381L24.3834 14.2871V23.2742ZM7.57302 14.286L15.3456 9.7873V18.7628L7.57302 23.1796V14.286Z" fill="#DC7000"/>
<path d="M20.5273 27.4724C20.8601 27.4724 21.1299 27.2026 21.1299 26.8699C21.1299 26.5371 20.8601 26.2673 20.5273 26.2673C20.1946 26.2673 19.9248 26.5371 19.9248 26.8699C19.9248 27.2026 20.1946 27.4724 20.5273 27.4724Z" fill="#DC7000"/>
</g>
<defs>
<clipPath id="clip0_1_242">
<rect width="30.8475" height="30.8475" fill="white" transform="translate(0.525391 0.423737)"/>
</clipPath>
</defs>
</svg>
