<svg width="34" height="34" viewBox="0 0 34 34" fill="none" xmlns="http://www.w3.org/2000/svg">
<g clip-path="url(#clip0_1_224)">
<path d="M29.7203 2.17792H4.38132C2.25276 2.18035 0.527819 3.90528 0.525391 6.03385V28.0677C0.527819 30.1963 2.25276 31.9213 4.38132 31.9237H29.7203C31.8489 31.9213 33.5738 30.1963 33.5762 28.0677V6.03385C33.5738 3.90528 31.8489 2.18035 29.7203 2.17792ZM32.4745 28.0677C32.4727 29.5881 31.2407 30.8202 29.7203 30.822H4.38132C2.86095 30.8202 1.62891 29.5881 1.62709 28.0677V6.03385C1.62891 4.51348 2.86095 3.28143 4.38132 3.27961H29.7203C31.2407 3.28143 32.4727 4.51348 32.4745 6.03385V28.0677Z" fill="#DC7000"/>
<path d="M29.7203 6.58469H4.3813C3.46863 6.58469 2.72876 7.32455 2.72876 8.23723V28.0677C2.72876 28.9804 3.46863 29.7203 4.3813 29.7203H29.7203C30.633 29.7203 31.3728 28.9804 31.3728 28.0677V8.23723C31.3728 7.32455 30.633 6.58469 29.7203 6.58469ZM17.0508 17.5267L11.0515 14.2966L17.0508 11.0664L23.0501 14.2966L17.0508 17.5267ZM23.661 15.2187V21.6779L17.6016 24.9422V18.483L23.661 15.2187ZM16.4999 18.483V24.9422L10.4406 21.6779V15.2187L16.4999 18.483ZM3.83045 8.23723C3.83045 7.933 4.07708 7.68638 4.3813 7.68638H16.4999V10.1101L9.62867 13.8118C9.62151 13.8157 9.61325 13.8173 9.60609 13.8217C9.43952 13.9218 9.338 14.1022 9.33893 14.2966V18.9138L3.83045 21.668V8.23723ZM30.2711 28.0677C30.2711 28.372 30.0245 28.6186 29.7203 28.6186H4.3813C4.07708 28.6186 3.83045 28.372 3.83045 28.0677V22.8997L9.33893 20.1454V22.0084C9.33904 22.211 9.45031 22.3971 9.62867 22.4932L16.7897 26.3491C16.9527 26.4368 17.1489 26.4368 17.3119 26.3491L24.4729 22.4932C24.6513 22.3971 24.7626 22.211 24.7627 22.0084V20.1454L30.2711 22.8997V28.0677ZM30.2711 21.668L24.7627 18.9138V14.2966C24.7626 14.1028 24.6607 13.9233 24.4944 13.8239C24.4872 13.8195 24.479 13.8179 24.4718 13.814L17.6016 10.1101V7.68638H29.7203C30.0245 7.68638 30.2711 7.933 30.2711 8.23723V21.668Z" fill="#DC7000"/>
<path d="M3.83039 5.48304C4.13461 5.48304 4.38124 5.23642 4.38124 4.9322C4.38124 4.62797 4.13461 4.38135 3.83039 4.38135C3.52616 4.38135 3.27954 4.62797 3.27954 4.9322C3.27954 5.23642 3.52616 5.48304 3.83039 5.48304Z" fill="#DC7000"/>
<path d="M6.03376 5.48304C6.33798 5.48304 6.58461 5.23642 6.58461 4.9322C6.58461 4.62797 6.33798 4.38135 6.03376 4.38135C5.72953 4.38135 5.48291 4.62797 5.48291 4.9322C5.48291 5.23642 5.72953 5.48304 6.03376 5.48304Z" fill="#DC7000"/>
<path d="M8.23713 5.48304C8.54135 5.48304 8.78797 5.23642 8.78797 4.9322C8.78797 4.62797 8.54135 4.38135 8.23713 4.38135C7.9329 4.38135 7.68628 4.62797 7.68628 4.9322C7.68628 5.23642 7.9329 5.48304 8.23713 5.48304Z" fill="#DC7000"/>
<path d="M22.0084 5.48304H29.7202C30.0245 5.48304 30.2711 5.23642 30.2711 4.9322C30.2711 4.62797 30.0245 4.38135 29.7202 4.38135H22.0084C21.7041 4.38135 21.4575 4.62797 21.4575 4.9322C21.4575 5.23642 21.7041 5.48304 22.0084 5.48304Z" fill="#DC7000"/>
</g>
<defs>
<clipPath id="clip0_1_224">
<rect width="33.0508" height="33.0508" fill="white" transform="translate(0.525391 0.525421)"/>
</clipPath>
</defs>
</svg>
