<svg width="25" height="24" viewBox="0 0 25 24" fill="none" xmlns="http://www.w3.org/2000/svg">
<g id="bx:bxs-check-circle">
<path id="Vector" d="M12.5986 2C7.08463 2 2.59863 6.486 2.59863 12C2.59863 17.514 7.08463 22 12.5986 22C18.1126 22 22.5986 17.514 22.5986 12C22.5986 6.486 18.1126 2 12.5986 2ZM10.5996 16.413L7.59408 13.4139C7.20333 13.024 7.20254 12.3912 7.59232 12.0003C7.98234 11.6092 8.61564 11.6085 9.00656 11.9987L10.5976 13.587L15.1846 9C15.5751 8.60953 16.2082 8.60953 16.5986 9C16.9891 9.39047 16.9891 10.0235 16.5986 10.414L10.5996 16.413Z" fill="#2FAB73"/>
</g>
</svg>
