<svg width="11" height="11" viewBox="0 0 11 11" fill="none" xmlns="http://www.w3.org/2000/svg">
<g id="linkedin 1" clip-path="url(#clip0_1_1036)">
<path id="Vector" d="M10.9973 11V10.9996H11V6.96531C11 4.99173 10.5751 3.47144 8.26789 3.47144C7.15873 3.47144 6.41439 4.0801 6.11052 4.65714H6.07843V3.65569H3.89081V10.9996H6.16873V7.36314C6.16873 6.40569 6.35023 5.47985 7.53593 5.47985C8.70423 5.47985 8.72164 6.57252 8.72164 7.42456V11H10.9973Z" fill="black"/>
<path id="Vector_2" d="M0.181519 3.65601H2.46219V10.9999H0.181519V3.65601Z" fill="black"/>
<path id="Vector_3" d="M1.32092 0C0.591708 0 0 0.591708 0 1.32092C0 2.05013 0.591708 2.65421 1.32092 2.65421C2.05013 2.65421 2.64183 2.05013 2.64183 1.32092C2.64138 0.591708 2.04967 0 1.32092 0V0Z" fill="black"/>
</g>
<defs>
<clipPath id="clip0_1_1036">
<rect width="11" height="11" fill="white"/>
</clipPath>
</defs>
</svg>
