<svg width="33" height="33" viewBox="0 0 33 33" fill="none" xmlns="http://www.w3.org/2000/svg">
<g clip-path="url(#clip0_1_168)">
<path d="M3.18792 13.3051C3.32945 13.3059 3.46549 13.2503 3.56598 13.1507L5.69593 11.0207C5.90473 10.8119 5.90473 10.4734 5.69593 10.2646C5.48713 10.0558 5.1486 10.0558 4.9398 10.2646L2.80985 12.3945C2.70905 12.4945 2.65234 12.6306 2.65234 12.7726C2.65234 12.9146 2.70905 13.0507 2.80985 13.1507C2.91034 13.2503 3.04638 13.3059 3.18792 13.3051Z" fill="#DC7000"/>
<path d="M3.18792 16.5C3.32945 16.5008 3.46549 16.4452 3.56598 16.3456L8.89084 11.0207C9.09964 10.8119 9.09964 10.4734 8.89084 10.2646C8.68204 10.0558 8.34351 10.0558 8.13471 10.2646L2.80985 15.5894C2.70905 15.6894 2.65234 15.8255 2.65234 15.9675C2.65234 16.1095 2.70905 16.2456 2.80985 16.3456C2.91034 16.4452 3.04638 16.5008 3.18792 16.5Z" fill="#DC7000"/>
<path d="M30.8771 0.525421H17.0325C16.1502 0.525421 15.435 1.24063 15.435 2.12288V7.98022H3.18782C1.7174 7.98022 0.525391 9.17223 0.525391 10.6427V24.4873C0.525391 25.9577 1.7174 27.1497 3.18782 27.1497H9.04516V29.2797H7.44771C6.56546 29.2797 5.85025 29.9949 5.85025 30.8771C5.85025 31.7594 6.56546 32.4746 7.44771 32.4746H30.8771C31.7593 32.4746 32.4745 31.7594 32.4745 30.8771V2.12288C32.4745 1.24063 31.7593 0.525421 30.8771 0.525421ZM3.18782 9.04519H22.3573C23.2396 9.04519 23.9548 9.7604 23.9548 10.6427V23.4223H1.59036V10.6427C1.59036 9.7604 2.30557 9.04519 3.18782 9.04519ZM1.59036 24.4873H23.9548C23.9548 25.3695 23.2396 26.0847 22.3573 26.0847H3.18782C2.30557 26.0847 1.59036 25.3695 1.59036 24.4873ZM10.1101 27.1497H15.435V29.2797H10.1101V27.1497ZM17.0325 31.4096H7.44771C7.15362 31.4096 6.91522 31.1712 6.91522 30.8771C6.91522 30.583 7.15362 30.3446 7.44771 30.3446H18.0974C18.3915 30.3446 18.6299 30.583 18.6299 30.8771C18.6299 31.1712 18.3915 31.4096 18.0974 31.4096H17.0325ZM31.4096 30.8771C31.4096 31.1712 31.1712 31.4096 30.8771 31.4096H19.599C19.7716 30.9214 19.6969 30.3799 19.3986 29.9566C19.1002 29.5334 18.6152 29.2811 18.0974 29.2797H16.5V27.1497H22.3573C23.8277 27.1497 25.0197 25.9577 25.0197 24.4873V10.6427C25.0197 9.17223 23.8277 7.98022 22.3573 7.98022H16.5V2.12288C16.5 1.82879 16.7384 1.59039 17.0325 1.59039H30.8771C31.1712 1.59039 31.4096 1.82879 31.4096 2.12288V30.8771Z" fill="#DC7000"/>
<path d="M29.2796 3.1879H18.6299C18.0417 3.1879 17.5649 3.6647 17.5649 4.25287V5.31784C17.5649 5.90601 18.0417 6.38281 18.6299 6.38281H29.2796C29.8678 6.38281 30.3446 5.90601 30.3446 5.31784V4.25287C30.3446 3.6647 29.8678 3.1879 29.2796 3.1879ZM18.6299 5.31784V4.25287H29.2796V5.31784H18.6299Z" fill="#DC7000"/>
<path d="M28.2146 11.1751C29.0969 11.1751 29.8121 10.4599 29.8121 9.57767C29.8121 8.69542 29.0969 7.98021 28.2146 7.98021C27.3324 7.98021 26.6172 8.69542 26.6172 9.57767C26.6172 10.4599 27.3324 11.1751 28.2146 11.1751ZM28.2146 9.04518C28.5087 9.04518 28.7471 9.28358 28.7471 9.57767C28.7471 9.87175 28.5087 10.1102 28.2146 10.1102C27.9206 10.1102 27.6822 9.87175 27.6822 9.57767C27.6822 9.28358 27.9206 9.04518 28.2146 9.04518Z" fill="#DC7000"/>
<path d="M29.8121 13.8376C29.8121 12.9553 29.0969 12.2401 28.2146 12.2401C27.3324 12.2401 26.6172 12.9553 26.6172 13.8376C26.6172 14.7198 27.3324 15.435 28.2146 15.435C29.0969 15.435 29.8121 14.7198 29.8121 13.8376ZM28.2146 14.3701C27.9206 14.3701 27.6822 14.1317 27.6822 13.8376C27.6822 13.5435 27.9206 13.3051 28.2146 13.3051C28.5087 13.3051 28.7471 13.5435 28.7471 13.8376C28.7471 14.1317 28.5087 14.3701 28.2146 14.3701Z" fill="#DC7000"/>
<path d="M21.2925 28.2147C20.9984 28.2147 20.76 28.4531 20.76 28.7472V29.8121C20.76 30.1062 20.9984 30.3446 21.2925 30.3446C21.5866 30.3446 21.825 30.1062 21.825 29.8121V28.7472C21.825 28.4531 21.5866 28.2147 21.2925 28.2147Z" fill="#DC7000"/>
<path d="M23.4224 28.2147C23.1283 28.2147 22.8899 28.4531 22.8899 28.7472V29.8121C22.8899 30.1062 23.1283 30.3446 23.4224 30.3446C23.7165 30.3446 23.9549 30.1062 23.9549 29.8121V28.7472C23.9549 28.4531 23.7165 28.2147 23.4224 28.2147Z" fill="#DC7000"/>
<path d="M25.5523 28.2147C25.2582 28.2147 25.0198 28.4531 25.0198 28.7472V29.8121C25.0198 30.1062 25.2582 30.3446 25.5523 30.3446C25.8463 30.3446 26.0847 30.1062 26.0847 29.8121V28.7472C26.0847 28.4531 25.8463 28.2147 25.5523 28.2147Z" fill="#DC7000"/>
<path d="M27.6821 28.2147C27.3881 28.2147 27.1497 28.4531 27.1497 28.7472V29.8121C27.1497 30.1062 27.3881 30.3446 27.6821 30.3446C27.9762 30.3446 28.2146 30.1062 28.2146 29.8121V28.7472C28.2146 28.4531 27.9762 28.2147 27.6821 28.2147Z" fill="#DC7000"/>
<path d="M29.812 28.2147C29.5179 28.2147 29.2795 28.4531 29.2795 28.7472V29.8121C29.2795 30.1062 29.5179 30.3446 29.812 30.3446C30.1061 30.3446 30.3445 30.1062 30.3445 29.8121V28.7472C30.3445 28.4531 30.1061 28.2147 29.812 28.2147Z" fill="#DC7000"/>
</g>
<defs>
<clipPath id="clip0_1_168">
<rect width="31.9492" height="31.9492" fill="white" transform="translate(0.525391 0.525421)"/>
</clipPath>
</defs>
</svg>
