<svg width="31" height="31" viewBox="0 0 31 31" fill="none" xmlns="http://www.w3.org/2000/svg">
<g clip-path="url(#clip0_1_149)">
<path d="M21.7441 0.627121H9.25586C8.05214 0.627121 7.07202 1.60724 7.07202 2.81096V28.1886C7.07202 29.3928 8.05214 30.3729 9.25586 30.3729H21.7436C22.9478 30.3729 23.928 29.3928 23.928 28.189V2.81096C23.928 1.60724 22.9478 0.627121 21.7441 0.627121ZM8.06355 4.59322H22.9364V23.4322H8.06355V4.59322ZM9.25586 1.61865H21.7436C22.4015 1.61865 22.9364 2.15357 22.9364 2.81096V3.6017H8.06355V2.81096C8.06355 2.15357 8.59848 1.61865 9.25586 1.61865ZM21.7441 29.3814H9.25586C8.59848 29.3814 8.06355 28.8464 8.06355 28.189V24.4237H22.9364V28.189C22.9364 28.8464 22.4015 29.3814 21.7441 29.3814Z" fill="#DC7000"/>
<path d="M15.5001 24.9195C14.4065 24.9195 13.5171 25.8089 13.5171 26.9025C13.5171 27.9962 14.4065 28.8856 15.5001 28.8856C16.5938 28.8856 17.4832 27.9962 17.4832 26.9025C17.4832 25.8089 16.5938 24.9195 15.5001 24.9195ZM15.5001 27.8941C14.9533 27.8941 14.5086 27.4494 14.5086 26.9025C14.5086 26.3557 14.9533 25.911 15.5001 25.911C16.047 25.911 16.4917 26.3557 16.4917 26.9025C16.4917 27.4494 16.047 27.8941 15.5001 27.8941Z" fill="#DC7000"/>
<path d="M13.517 3.10594H15.5001C15.7742 3.10594 15.9958 2.88433 15.9958 2.61017C15.9958 2.33602 15.7742 2.11441 15.5001 2.11441H13.517C13.2428 2.11441 13.0212 2.33602 13.0212 2.61017C13.0212 2.88433 13.2428 3.10594 13.517 3.10594Z" fill="#DC7000"/>
<path d="M16.9875 3.10594H17.4832C17.7574 3.10594 17.979 2.88433 17.979 2.61017C17.979 2.33602 17.7574 2.11441 17.4832 2.11441H16.9875C16.7133 2.11441 16.4917 2.33602 16.4917 2.61017C16.4917 2.88433 16.7133 3.10594 16.9875 3.10594Z" fill="#DC7000"/>
<path d="M28.6933 2.89225C28.4995 2.69841 28.1861 2.69841 27.9923 2.89225C27.7985 3.0861 27.7985 3.39942 27.9923 3.59326C29.8445 5.44543 29.8445 8.45917 27.9923 10.3118C27.7985 10.5057 27.7985 10.819 27.9923 11.0128C28.089 11.1095 28.2159 11.1581 28.3428 11.1581C28.4697 11.1581 28.5966 11.1095 28.6933 11.0128C30.9322 8.77448 30.9322 5.13112 28.6933 2.89225Z" fill="#DC7000"/>
<path d="M26.6057 4.02061C26.4118 3.82677 26.0985 3.82677 25.9047 4.02061C25.7108 4.21445 25.7108 4.52778 25.9047 4.72162C26.5179 5.33488 26.8555 6.1519 26.8555 7.02146C26.8555 7.89103 26.5179 8.70755 25.9047 9.32081C25.7108 9.51465 25.7108 9.82798 25.9047 10.0218C26.0013 10.1185 26.1282 10.1671 26.2552 10.1671C26.3821 10.1671 26.509 10.1185 26.6057 10.0218C27.4063 9.22166 27.8471 8.15577 27.8471 7.02146C27.8471 5.88716 27.4068 4.82077 26.6057 4.02061Z" fill="#DC7000"/>
<path d="M3.00784 3.59326C3.20169 3.39942 3.20169 3.0861 3.00784 2.89225C2.814 2.69841 2.50068 2.69841 2.30683 2.89225C0.0679694 5.13112 0.0679694 8.77398 2.30683 11.0128C2.40351 11.1095 2.53042 11.1581 2.65734 11.1581C2.78425 11.1581 2.91117 11.1095 3.00784 11.0128C3.20169 10.819 3.20169 10.5057 3.00784 10.3118C1.15518 8.45967 1.15518 5.44593 3.00784 3.59326Z" fill="#DC7000"/>
<path d="M5.09547 3.88379C4.90163 3.68994 4.58831 3.68994 4.39447 3.88379C3.59381 4.68395 3.15308 5.74984 3.15308 6.88414C3.15308 8.01845 3.59381 9.08434 4.39447 9.88499C4.49114 9.98167 4.61806 10.0303 4.74497 10.0303C4.87189 10.0303 4.9988 9.98167 5.09547 9.88499C5.28932 9.69115 5.28932 9.37783 5.09547 9.18399C4.48222 8.57073 4.1446 7.75371 4.1446 6.88414C4.1446 6.01457 4.48172 5.19805 5.09547 4.58479C5.28882 4.39145 5.28882 4.07763 5.09547 3.88379Z" fill="#DC7000"/>
</g>
<defs>
<clipPath id="clip0_1_149">
<rect width="29.7458" height="29.7458" fill="white" transform="translate(0.627197 0.627121)"/>
</clipPath>
</defs>
</svg>
