<svg width="25" height="24" viewBox="0 0 25 24" fill="none" xmlns="http://www.w3.org/2000/svg">
<g id="bx:bxs-server">
<path id="Vector" d="M20.5 3H4.5C3.96957 3 3.46086 3.21071 3.08579 3.58579C2.71071 3.96086 2.5 4.46957 2.5 5V9C2.5 9.53043 2.71071 10.0391 3.08579 10.4142C3.46086 10.7893 3.96957 11 4.5 11H20.5C21.0304 11 21.5391 10.7893 21.9142 10.4142C22.2893 10.0391 22.5 9.53043 22.5 9V5C22.5 4.46957 22.2893 3.96086 21.9142 3.58579C21.5391 3.21071 21.0304 3 20.5 3ZM15.5 7C15.5 7.55228 15.0523 8 14.5 8C13.9477 8 13.5 7.55228 13.5 7C13.5 6.44772 13.9477 6 14.5 6C15.0523 6 15.5 6.44772 15.5 7ZM19.5 7C19.5 7.55228 19.0523 8 18.5 8C17.9477 8 17.5 7.55228 17.5 7C17.5 6.44772 17.9477 6 18.5 6C19.0523 6 19.5 6.44772 19.5 7ZM20.5 13H4.5C3.96957 13 3.46086 13.2107 3.08579 13.5858C2.71071 13.9609 2.5 14.4696 2.5 15V19C2.5 19.5304 2.71071 20.0391 3.08579 20.4142C3.46086 20.7893 3.96957 21 4.5 21H20.5C21.0304 21 21.5391 20.7893 21.9142 20.4142C22.2893 20.0391 22.5 19.5304 22.5 19V15C22.5 14.4696 22.2893 13.9609 21.9142 13.5858C21.5391 13.2107 21.0304 13 20.5 13ZM15.5 17C15.5 17.5523 15.0523 18 14.5 18C13.9477 18 13.5 17.5523 13.5 17C13.5 16.4477 13.9477 16 14.5 16C15.0523 16 15.5 16.4477 15.5 17ZM19.5 17C19.5 17.5523 19.0523 18 18.5 18C17.9477 18 17.5 17.5523 17.5 17C17.5 16.4477 17.9477 16 18.5 16C19.0523 16 19.5 16.4477 19.5 17Z" fill="#DC7000"/>
</g>
</svg>
