<svg width="25" height="24" viewBox="0 0 25 24" fill="none" xmlns="http://www.w3.org/2000/svg">
<g id="heroicons:sm-user">
<g id="Group">
<path id="Vector" fill-rule="evenodd" clip-rule="evenodd" d="M12.5 10.8001C13.4548 10.8001 14.3705 10.4208 15.0456 9.74568C15.7207 9.07055 16.1 8.15488 16.1 7.2001C16.1 6.24532 15.7207 5.32964 15.0456 4.65451C14.3705 3.97938 13.4548 3.6001 12.5 3.6001C11.5452 3.6001 10.6296 3.97938 9.95442 4.65451C9.27929 5.32964 8.90001 6.24532 8.90001 7.2001C8.90001 8.15488 9.27929 9.07055 9.95442 9.74568C10.6296 10.4208 11.5452 10.8001 12.5 10.8001ZM7.39866 21.6001C5.57686 21.6001 4.04225 20.0687 4.73942 18.3856C5.16156 17.3664 5.7803 16.4404 6.56031 15.6604C7.34032 14.8804 8.26633 14.2616 9.28547 13.8395C10.3046 13.4174 11.3969 13.2001 12.5 13.2001C13.6031 13.2001 14.6954 13.4174 15.7145 13.8395C16.7337 14.2616 17.6597 14.8804 18.4397 15.6604C19.2197 16.4404 19.8385 17.3664 20.2606 18.3856C20.9578 20.0687 19.4232 21.6001 17.6014 21.6001H7.39866Z" fill="#DC7000"/>
</g>
</g>
</svg>
