<svg width="32" height="32" viewBox="0 0 32 32" fill="none" xmlns="http://www.w3.org/2000/svg">
<g clip-path="url(#clip0_1_210)">
<path d="M18.5671 23.9055C16.8811 24.4681 15.0213 24.468 13.3305 23.9053C12.8567 23.7475 12.3452 24.0038 12.1876 24.4773C12.03 24.9509 12.2861 25.4626 12.7597 25.6203C13.7894 25.963 14.8703 26.1342 15.9509 26.1342C17.0316 26.1342 18.1119 25.9628 19.1392 25.62C19.6126 25.462 19.8684 24.9502 19.7103 24.4767C19.5524 24.0033 19.0406 23.7477 18.5671 23.9055Z" fill="#DC7000"/>
<path d="M26.4768 6.53146C26.0921 3.77266 23.7232 1.59514 20.7892 1.59514H19.7568V1.53086C19.7568 1.03175 19.3522 0.627121 18.8531 0.627121H13.0451C12.546 0.627121 12.1414 1.03175 12.1414 1.53086V1.59508H11.1091C8.19966 1.59508 5.82747 3.74223 5.42405 6.53079C3.72997 6.91633 2.46143 8.4337 2.46143 10.2428V17.9868C2.46143 20.4634 4.47874 21.4728 5.39507 21.6906C5.80886 27.2659 10.4904 31.4746 15.9491 31.4746C21.5159 31.4746 26.0925 27.1544 26.5027 21.6908C28.878 21.1269 29.4368 18.9719 29.4368 17.9869V10.2429C29.4369 8.43466 28.1695 6.91789 26.4768 6.53146ZM19.7568 3.40255H20.7891C23.3462 3.40255 24.4025 5.49325 24.6221 6.43512H19.7568V3.40255ZM13.9489 2.43459H17.9494V6.43512H13.9489V2.43459ZM11.1091 3.40255H12.1414V6.43512H7.27984C7.866 3.97961 10.0905 3.40255 11.1091 3.40255ZM15.9491 29.6671C11.4886 29.6671 7.67573 26.288 7.2188 21.7946H11.6754C12.7844 21.7946 13.8695 21.3452 14.6524 20.5616C14.6571 20.557 14.6617 20.5523 14.6662 20.5475C15.0062 20.215 15.4727 20.0246 15.9491 20.0246C16.4257 20.0246 16.8921 20.215 17.2321 20.5476C17.2366 20.5523 17.2412 20.557 17.2459 20.5616C18.0288 21.3452 19.1139 21.7946 20.2229 21.7946H24.6791C24.2253 26.2109 20.4833 29.6671 15.9491 29.6671ZM27.6294 17.9869C27.6294 19.1054 26.7178 19.9871 25.6291 19.9871H20.2229C19.5968 19.9871 18.9843 19.7364 18.5391 19.2986C18.5342 19.2934 18.5293 19.2884 18.5243 19.2833C17.8467 18.6058 16.9082 18.2172 15.9492 18.2172C14.9903 18.2172 14.0517 18.6058 13.3741 19.2833C13.3691 19.2883 13.3641 19.2934 13.3593 19.2985C12.914 19.7364 12.3015 19.9871 11.6754 19.9871H6.2691C5.18389 19.9871 4.26883 19.1091 4.26883 17.9869V10.2429C4.26883 9.13994 5.16618 8.24265 6.2691 8.24265H25.6291C26.732 8.24265 27.6293 9.14 27.6293 10.2429V17.9869H27.6294Z" fill="#DC7000"/>
</g>
<defs>
<clipPath id="clip0_1_210">
<rect width="30.8475" height="30.8475" fill="white" transform="translate(0.525391 0.627121)"/>
</clipPath>
</defs>
</svg>
